<svg viewBox="0 0 158 151" fill="none" xmlns="http://www.w3.org/2000/svg">
<path d="M86.1329 6.57092L99.1798 46.7249C100.318 50.2271 103.581 52.5983 107.264 52.5983H149.484C156.75 52.5983 159.77 61.8954 153.893 66.1659L119.736 90.9825C116.756 93.147 115.51 96.9836 116.648 100.486L129.695 140.64C131.94 147.55 124.031 153.296 118.153 149.025L83.9962 124.208C81.017 122.044 76.983 122.044 74.0038 124.208L39.8468 149.025C33.9689 153.296 26.0603 147.55 28.3055 140.64L41.3523 100.486C42.4902 96.9836 41.2436 93.147 38.2645 90.9825L4.10741 66.1659C-1.77044 61.8954 1.25039 52.5983 8.51582 52.5983H50.7363C54.4187 52.5983 57.6823 50.2271 58.8202 46.7249L71.8671 6.5709C74.1122 -0.338924 83.8878 -0.338915 86.1329 6.57092Z" fill="url(#paint0_linear)" stroke="black"/>
<defs>
<linearGradient id="paint0_linear" x1="22.2099" y1="10.1605" x2="146.901" y2="183" gradientUnits="userSpaceOnUse">
<stop stop-color="#BABABA" stop-opacity="0.5"/>
<stop offset="1" stop-color="white" stop-opacity="0"/>
</linearGradient>
</defs>
</svg>
