<svg width="current" height="current" viewBox="0 0 227 58" fill="none" xmlns="http://www.w3.org/2000/svg">
<path d="M92.6123 35V29H68.9963V21.8H92.6123V18.2H68.9963V11H101.636L101.156 35H92.6123ZM88.3883 38.36H102.596V45.56H68.0363V38.36H79.3643V32.36H88.3883V38.36ZM118.333 24.872V18.104H142.093V10.904H109.309V32.072H142.093V24.872H118.333ZM108.349 38.36V45.56H143.053V38.36H108.349ZM182.834 24.92H186.434V32.12H182.834V47H173.858V10.52H182.834V24.92ZM170.978 11V32.552H149.762V11H158.786V14.552H161.954V11H170.978ZM161.954 25.352V21.752H158.786V25.352H161.954ZM164.642 34.04V38.36H172.418V45.56H148.802V38.36H155.618V34.04H164.642ZM213.926 10.52H222.95V47H213.926V44.744H207.206V38.312H213.926V10.52ZM189.782 22.28C192.822 22.28 194.806 20.616 195.734 17.288H190.262V11H211.238V17.288H205.766C206.694 20.616 208.678 22.28 211.718 22.28L210.278 28.52C208.454 28.52 206.726 28.2 205.094 27.56C203.462 26.888 202.022 25.928 200.774 24.68C199.494 25.928 198.038 26.888 196.406 27.56C194.774 28.2 193.046 28.52 191.222 28.52L189.782 22.28ZM212.486 30.152V36.872H205.046L204.566 47H196.022V36.872H189.302V30.152H212.486Z" fill="#5F4B8B"/>
<path d="M0 14.4737C0 6.48009 6.33369 0 14.1467 0H15.5614C23.3744 0 29.708 6.48009 29.708 14.4737V40.5263C29.708 48.5199 23.3744 55 15.5614 55H14.1467C6.33369 55 0 48.5199 0 40.5263V14.4737Z" fill="white"/>
<path fill-rule="evenodd" clip-rule="evenodd" d="M15.5614 4.34211H14.1467C8.67759 4.34211 4.24401 8.87817 4.24401 14.4737V40.5263C4.24401 46.1218 8.67759 50.6579 14.1467 50.6579H15.5614C21.0305 50.6579 25.464 46.1218 25.464 40.5263V14.4737C25.464 8.87817 21.0305 4.34211 15.5614 4.34211ZM14.1467 0C6.33369 0 0 6.48009 0 14.4737V40.5263C0 48.5199 6.33369 55 14.1467 55H15.5614C23.3744 55 29.708 48.5199 29.708 40.5263V14.4737C29.708 6.48009 23.3744 0 15.5614 0H14.1467Z" fill="#5F4B8B"/>
<path d="M25.292 14.4737C25.292 6.48009 31.6257 0 39.4387 0H40.8534C48.6663 0 55 6.48009 55 14.4737V40.5263C55 48.5199 48.6663 55 40.8533 55H39.4387C31.6257 55 25.292 48.5199 25.292 40.5263V14.4737Z" fill="white"/>
<path fill-rule="evenodd" clip-rule="evenodd" d="M40.8534 4.34211H39.4387C33.9696 4.34211 29.536 8.87817 29.536 14.4737V40.5263C29.536 46.1218 33.9696 50.6579 39.4387 50.6579H40.8533C46.3224 50.6579 50.756 46.1218 50.756 40.5263V14.4737C50.756 8.87817 46.3224 4.34211 40.8534 4.34211ZM39.4387 0C31.6257 0 25.292 6.48009 25.292 14.4737V40.5263C25.292 48.5199 31.6257 55 39.4387 55H40.8533C48.6663 55 55 48.5199 55 40.5263V14.4737C55 6.48009 48.6663 0 40.8534 0H39.4387Z" fill="#5F4B8B"/>
<path d="M16.8613 34.7368C16.8613 39.533 13.0868 43.421 8.43066 43.421C3.77454 43.421 0 39.533 0 34.7368C0 29.9407 3.77454 26.0526 8.43066 26.0526C13.0868 26.0526 16.8613 29.9407 16.8613 34.7368Z" fill="#5F4B8B"/>
<path d="M8.43062 35.564C8.43062 36.7059 7.53192 37.6317 6.42332 37.6317C5.31471 37.6317 4.41602 36.7059 4.41602 35.564C4.41602 34.4221 5.31471 33.4963 6.42332 33.4963C7.53192 33.4963 8.43062 34.4221 8.43062 35.564Z" fill="white"/>
<path d="M42.1533 34.7368C42.1533 39.533 38.3788 43.421 33.7227 43.421C29.0665 43.421 25.292 39.533 25.292 34.7368C25.292 29.9407 29.0665 26.0526 33.7227 26.0526C38.3788 26.0526 42.1533 29.9407 42.1533 34.7368Z" fill="#5F4B8B"/>
<path d="M32.5184 35.564C32.5184 36.7059 31.5298 37.6317 30.3103 37.6317C29.0909 37.6317 28.1023 36.7059 28.1023 35.564C28.1023 34.4221 29.0909 33.4963 30.3103 33.4963C31.5298 33.4963 32.5184 34.4221 32.5184 35.564Z" fill="white"/>
</svg>
